<?xml version="1.0" standalone="no"?>
<!DOCTYPE svg PUBLIC "-//W3C//DTD SVG 20010904//EN"
 "http://www.w3.org/TR/2001/REC-SVG-20010904/DTD/svg10.dtd">
<svg version="1.0" xmlns="http://www.w3.org/2000/svg"
 width="200.000000pt" height="200.000000pt" viewBox="0 0 200.000000 200.000000"
 preserveAspectRatio="xMidYMid meet">
<metadata>
Created by potrace 1.11, written by Peter Selinger 2001-2013
</metadata>
<g transform="translate(0.000000,200.000000) scale(0.100000,-0.100000)"
fill="#000000" stroke="none">
<path d="M1340 1892 c-52 -7 -120 -17 -150 -22 -151 -24 -152 -24 -162 -6 -13
23 -20 20 -48 -24 -13 -22 -31 -40 -39 -40 -20 0 -165 -50 -171 -59 -3 -4 -27
-18 -55 -32 -27 -13 -52 -27 -55 -30 -3 -3 -14 -8 -25 -12 -47 -14 -92 -33
-115 -49 -13 -10 -30 -18 -38 -18 -17 0 -155 -74 -180 -97 -35 -31 -51 -43
-87 -64 -19 -12 -35 -26 -35 -32 0 -7 -18 -32 -40 -55 -27 -29 -40 -53 -40
-71 0 -15 -9 -36 -19 -45 -11 -10 -25 -31 -31 -47 -15 -35 -27 -37 -33 -6 -2
12 -5 3 -6 -20 0 -24 3 -43 7 -43 5 0 15 -11 22 -25 8 -14 16 -21 20 -15 4 7
17 6 40 -2 40 -13 166 -16 261 -5 56 6 68 5 73 -9 7 -19 0 -34 -75 -141 -33
-47 -58 -87 -55 -90 3 -3 131 -6 285 -7 l281 -2 0 82 c0 101 8 144 27 144 12
0 14 -17 11 -95 -4 -115 -12 -110 158 -103 105 4 114 3 114 -14 0 -17 17 -18
290 -18 160 0 290 2 290 4 0 7 -25 52 -37 66 -16 18 -73 98 -179 248 -43 62
-96 135 -116 163 -43 58 -45 65 -19 74 10 3 21 14 24 24 2 10 18 24 36 32 17
8 31 17 31 20 0 6 84 59 125 79 26 13 123 82 147 105 15 14 33 25 40 25 7 0
20 15 29 33 9 17 27 38 40 44 13 7 18 13 12 13 -8 0 -13 14 -13 38 -1 49 -32
72 -111 79 -46 5 -59 9 -59 23 0 14 -15 16 -137 16 -76 0 -181 -6 -233 -14z"/>
<path d="M295 761 c-3 -2 -5 -89 -5 -193 l0 -188 745 0 745 0 -2 193 -3 192
-738 0 c-406 1 -740 -1 -742 -4z"/>
<path d="M342 331 c-65 -65 -54 -232 17 -274 36 -21 54 -21 90 -2 76 39 83
238 10 289 -37 26 -83 20 -117 -13z m95 -74 c8 -20 9 -37 5 -104 -2 -28 -49
-44 -63 -22 -15 24 -11 126 6 143 19 19 39 12 52 -17z"/>
<path d="M559 352 c-13 -2 -16 -24 -16 -152 l0 -150 34 0 33 0 0 60 0 60 41 0
c39 0 40 1 37 33 -3 29 -6 32 -38 33 -30 0 -35 4 -38 27 -3 26 -1 27 42 27 45
0 46 1 46 33 l0 32 -63 0 c-34 1 -69 -1 -78 -3z"/>
<path d="M739 355 c-1 0 -2 -69 -3 -152 l-2 -153 33 0 33 0 0 60 0 60 41 0
c39 0 40 1 37 33 -2 26 -7 32 -28 34 -14 0 -31 1 -37 2 -7 1 -13 12 -13 26 0
23 4 25 45 25 44 0 45 1 45 33 l0 33 -75 -1 c-41 0 -76 0 -76 0z"/>
<path d="M940 353 c-14 -3 -17 -92 -11 -280 1 -19 7 -23 31 -23 l30 0 0 61 c0
76 16 75 44 -4 20 -54 23 -57 55 -57 31 0 33 2 27 28 -4 15 -16 45 -26 66 -19
39 -19 39 0 64 25 31 26 93 3 121 -14 16 -32 22 -78 24 -33 2 -67 2 -75 0z
m104 -76 c12 -19 -8 -47 -35 -47 -14 0 -19 7 -19 28 0 16 3 31 6 34 10 10 38
2 48 -15z"/>
<path d="M1194 349 c-40 -20 -59 -68 -59 -150 0 -67 3 -80 27 -111 75 -98 180
-34 181 110 1 126 -64 192 -149 151z m70 -81 c18 -25 21 -100 6 -129 -12 -22
-43 -25 -59 -5 -10 12 -16 59 -12 108 1 18 27 48 41 48 5 0 16 -10 24 -22z"/>
<path d="M1390 221 c-18 -75 -35 -144 -38 -154 -3 -13 2 -17 27 -17 25 0 32 5
37 26 6 22 11 25 43 22 29 -2 37 -8 39 -26 3 -18 10 -22 38 -22 29 0 34 3 30
18 -3 9 -20 75 -37 147 -18 72 -33 131 -34 133 -1 1 -18 4 -37 6 l-34 3 -34
-136z"/>
<path d="M1603 353 c-10 -4 -13 -43 -13 -154 l0 -149 65 0 c53 0 68 4 85 22
30 32 43 93 35 162 -7 69 -17 91 -47 107 -22 12 -103 19 -125 12z m104 -86 c3
-5 6 -37 5 -70 0 -60 -9 -77 -43 -77 -13 0 -15 14 -14 83 1 45 3 83 4 84 4 4
42 -11 48 -20z"/>
</g>
</svg>
